<?xml version="1.0" encoding="utf-8"?>
<!-- Generator: Adobe Illustrator 23.0.3, SVG Export Plug-In . SVG Version: 6.00 Build 0)  -->
<svg version="1.1" id="Layer_1" xmlns="http://www.w3.org/2000/svg" xmlns:xlink="http://www.w3.org/1999/xlink" x="0px" y="0px"
	 viewBox="0 0 134.2 130.1" style="enable-background:new 0 0 134.2 130.1;" xml:space="preserve">
<style type="text/css">
	.st0{fill-rule:evenodd;clip-rule:evenodd;fill:#EE384E;}
	.st1{fill:#52B66A;}
	.st2{fill:#3A9BD0;}
	.st3{fill:#FFC913;}
</style>
<g>
	<g>
		<g>
			<g>
				<path class="st0" d="M74,129.2c0,0,59-119.8,60.2-125.4c1.2-5.5-13.4-3.5-18.8-3.1C109.9,1.1,23.9,20,17.1,20.8
					C9.8,21.7,49.4,55.1,74,129.2L74,129.2z"/>
			</g>
			<g>
				<g>
					<path class="st1" d="M8.2,61.8c-3.8,2-6.4,3.3-7.4,3.7c-5.3,2.2,22.3,4.4,53.5,38.2C35.9,79.5,18.2,67.7,8.2,61.8z"/>
				</g>
			</g>
			<g>
				<g>
					<path class="st2" d="M12,48.5C6.5,51,2.6,52.7,1.3,53.2c-6,2.1,24.4,7.4,56.8,51.3C40.3,74.4,22.2,57.7,12,48.5z"/>
				</g>
			</g>
			<g>
				<g>
					<path class="st3" d="M20.4,33.5C13.5,36,8.5,37.7,7.1,38c-6.4,1.7,26.6,17.2,56.8,71.2C49,72.8,31.6,48.8,21.5,35
						C21.1,34.5,20.8,34,20.4,33.5z"/>
				</g>
			</g>
		</g>
	</g>
</g>
</svg>
